<?xml version="1.0" encoding="UTF-8"?>
<!-- Created with Inkscape (http://www.inkscape.org/) -->
<svg width="260" height="240" version="1.1" viewBox="0 0 260 240" xmlns="http://www.w3.org/2000/svg" xmlns:cc="http://creativecommons.org/ns#" xmlns:dc="http://purl.org/dc/elements/1.1/" xmlns:rdf="http://www.w3.org/1999/02/22-rdf-syntax-ns#">
 <metadata>
  <rdf:RDF>
   <cc:Work rdf:about="">
    <dc:format>image/svg+xml</dc:format>
    <dc:type rdf:resource="http://purl.org/dc/dcmitype/StillImage"/>
    <dc:title/>
   </cc:Work>
  </rdf:RDF>
 </metadata>
 <g transform="translate(0 -882.52)">
  <path transform="translate(0 892.52)" d="m130-4.8594-59.998 54.289-69.535-31.787 41.82 64.34a100 100 0 0 0-12.287 48.018 100 100 0 0 0 86.221 98.936l13.779-28.936a70 70 0 0 1-70-70 70 70 0 0 1 70-70 70 70 0 0 1 70 70 70 70 0 0 1-70 70l13.775 28.928a100 100 0 0 0 86.225-98.928 100 100 0 0 0-12.35-47.922l41.883-64.436-69.535 31.787zm0 204.86a70 70 0 0 1 70-70 70 70 0 0 1-70-70 70 70 0 0 1-70 70 70 70 0 0 1 70 70z" fill="#0d1e7d"/>
 </g>
</svg>
